<svg fill="#FFFFFF" xmlns="http://www.w3.org/2000/svg" data-name="Layer 3" viewBox="0 0 99 99" x="0px" y="0px"><title>flatware</title><path d="M23.06,53,16.12,87.66A6.81,6.81,0,0,1,9.5,93H8V9.41a3.39,3.39,0,0,1,6.77-.07L12.27,43.8a1,1,0,0,0,1,1.07l3.06,0h.11A6.76,6.76,0,0,1,23.06,53Z"></path><path d="M91,70.2,89.53,93l-2.12,0,.25-21.16a3.17,3.17,0,0,0-3.17-3.14h0a3.16,3.16,0,0,0-3.2,3.07L81,92.94l-3.61,0,.25-21.17a3,3,0,0,0-.93-2.21,3.22,3.22,0,0,0-2.23-.92,3.17,3.17,0,0,0-3.24,3.06L71,92.82l-2.12,0L67.95,70a11.07,11.07,0,0,1,9.51-10.59,1,1,0,0,0,.84-1l-2.46-48C75.84,7.94,77.41,6,79.33,6s3.49,2,3.49,4.38l-2.43,48a1,1,0,0,0,.85,1A11.15,11.15,0,0,1,91,70.2Z"></path><path d="M57.18,72.34C57.18,81.92,50.11,93,45.49,93S33.82,81.92,33.82,72.34c0-8.12,5.09-13,9.81-14.09a1,1,0,0,0,.77-1L42,10.45C42,8,43.57,6,45.49,6S49,8,49,10.4L46.6,57.23a1,1,0,0,0,.77,1C52.09,59.35,57.18,64.22,57.18,72.34Z"></path></svg>