<svg fill="#FFFFFF" xmlns="http://www.w3.org/2000/svg" xmlns:xlink="http://www.w3.org/1999/xlink" version="1.1" x="0px" y="0px" viewBox="0 0 95 95" enable-background="new 0 0 95 95" xml:space="preserve"><path fill="#FFFFFF" d="M72.35,73.999c0.744,0.774,1.209,1.818,1.209,2.979c0,2.382-1.933,4.31-4.32,4.31  c-1.203,0-2.293-0.5-3.074-1.302c-0.322-0.241-0.64-0.517-0.943-0.848c-1.629-1.77-22.483-27.922-22.483-27.922  c-1.08-1.31-4.213-1.724-5.813-1.444c-1.602,0.279-10.004-9.333-13.019-13.215c-2.496-3.212-8.558-10.227-10.503-15.384  c-0.857-2.042-0.959-3.269-0.959-4.367c0-1.71,1.386-3.093,3.1-3.093c1.57,0,2.481,0.715,4.841,2.965  c5.586,4.684,33.286,37.934,35.028,40.075c0,0,15.067,15.229,16.867,17.165c0.009,0.012,0.023,0.024,0.033,0.038  c0.005,0.005,0.009,0.009,0.015,0.014C72.336,73.979,72.34,73.989,72.35,73.999z M21.507,73.771c-0.354,0.31-0.642,0.672-0.876,1.08  c-0.014,0.024-0.021,0.047-0.036,0.074c-0.102,0.182-0.194,0.367-0.268,0.562c-0.073,0.177-0.123,0.354-0.159,0.53  c-0.019,0.076-0.033,0.152-0.047,0.228c-0.021,0.149-0.04,0.298-0.044,0.445c-0.005,0.099-0.029,0.189-0.029,0.289  c0,2.382,1.933,4.31,4.312,4.31c1.269,0,2.404-0.559,3.192-1.435c0.01-0.004,0.023-0.009,0.026-0.017  c1.089-0.718,17.996-21.028,17.996-21.028l-3.751-4.547C41.824,54.261,23.768,71.504,21.507,73.771z M82.301,22.726  c-0.042,0-0.075,0.028-0.108,0.044l-0.02-0.021c-0.013,0.015-0.023,0.034-0.042,0.043c-0.004,0.01-0.014,0.019-0.024,0.031  c-5.162,5.615-13.679,14.188-14.062,13.771c-0.388-0.421,12.718-15.379,12.718-15.379c0.091-0.085,0.152-0.204,0.152-0.336  c0-0.258-0.209-0.469-0.47-0.469c-0.123,0-0.312,0.124-0.312,0.124c-0.006,0.004-0.006,0.007-0.006,0.007  c-0.004,0.009-0.009,0.017-0.019,0.021c-0.01,0.012-13.703,14.216-14.11,13.81s12.736-15.363,12.736-15.363l-0.019-0.019  c0.104-0.085,0.185-0.199,0.185-0.348c0-0.258-0.213-0.467-0.469-0.467c-0.133,0-0.251,0.057-0.336,0.147l-0.005-0.01  c-5.163,5.608-13.755,14.257-14.139,13.838c-0.389-0.424,12.836-15.495,12.836-15.495c0.076-0.083,0.128-0.189,0.128-0.308  c0-0.261-0.209-0.469-0.464-0.469c-0.171,0-0.408,0.213-0.408,0.213c-5.158,5.61-13.749,14.264-14.133,13.843  c-0.389-0.429,7.663-9.76,12.826-15.363l-0.024-0.021c0.02-0.036,0.044-0.064,0.044-0.109c0-0.147-0.124-0.268-0.271-0.268  c-0.052,0-0.1,0.028-0.143,0.061l-0.023-0.019C70.005,16.623,61.452,25.12,59.354,27.4c-3.415,3.709-3.169,9.004-3.169,9.004  c0.412,1.698-0.246,4.045-1.45,5.215l-4.964,4.859l3.037,3.38l4.485-5.463c1.07-1.308,3.234-2.021,4.798-1.578  c0,0,4.869,0.266,8.279-3.439c2.089-2.273,9.848-11.504,12.097-16.208c0.053-0.05,0.091-0.114,0.091-0.189  C82.558,22.842,82.444,22.726,82.301,22.726z"></path></svg>